<?xml version="1.0" standalone="no"?>
<!DOCTYPE svg PUBLIC "-//W3C//DTD SVG 20010904//EN"
 "http://www.w3.org/TR/2001/REC-SVG-20010904/DTD/svg10.dtd">
<svg version="1.0" xmlns="http://www.w3.org/2000/svg"
 width="580.000000pt" height="580.000000pt" viewBox="0 0 580.000000 580.000000"
 preserveAspectRatio="xMidYMid meet">
<metadata>
Created by potrace 1.14, written by Peter Selinger 2001-2017
</metadata>
<g transform="translate(0.000000,580.000000) scale(0.100000,-0.100000)"
fill="#000000" stroke="none">
<path d="M3079 5523 c-69 -75 -126 -179 -151 -276 l-12 -50 -123 5 c-132 5
-157 -2 -209 -57 -30 -32 -117 -49 -260 -49 l-122 -1 36 -32 c45 -40 203 -120
255 -129 20 -3 37 -10 37 -14 0 -4 -18 -24 -40 -44 -22 -21 -52 -55 -65 -76
-26 -41 -108 -130 -120 -130 -4 0 -5 23 -3 51 3 27 2 47 -3 42 -4 -4 -9 -32
-11 -62 l-3 -54 -55 -28 c-30 -16 -67 -29 -82 -29 -34 0 -45 -16 -15 -24 36
-9 88 -7 150 8 32 7 57 11 55 7 -2 -3 -15 -32 -30 -64 -16 -31 -40 -82 -54
-112 -30 -65 -41 -74 -50 -40 -3 14 -10 25 -15 25 -12 0 -11 -5 6 -46 14 -34
11 -64 -6 -64 -4 0 -6 -7 -3 -15 4 -8 1 -15 -5 -15 -17 0 -68 86 -91 154 -20
61 -47 113 -36 71 3 -11 8 -33 12 -50 9 -40 50 -120 87 -172 29 -41 29 -44 17
-88 -10 -36 -17 -45 -29 -40 -9 4 -35 11 -59 18 -58 16 -71 1 -74 -86 -2 -37
-7 -67 -13 -67 -5 0 -20 24 -33 53 -13 28 -20 41 -16 27 19 -77 18 -86 -21
-116 -21 -16 -67 -55 -102 -86 -36 -32 -71 -58 -78 -58 -8 0 -25 10 -39 23
l-25 23 37 37 c20 20 45 43 55 52 9 9 17 21 17 26 0 18 -127 -92 -164 -141
-12 -18 -160 -90 -183 -90 -8 0 -11 -4 -8 -10 10 -17 35 -11 99 21 l62 31 31
-31 c17 -17 39 -31 49 -31 9 0 15 3 11 6 -3 3 5 18 18 32 32 34 23 41 -16 13
-30 -22 -59 -22 -59 0 0 8 4 8 15 -1 9 -7 19 -10 22 -6 4 4 2 10 -4 14 -8 5
-10 18 -5 36 7 26 9 27 22 11 29 -35 57 -37 105 -6 25 16 55 41 66 55 12 15
46 45 75 67 63 46 87 42 98 -16 4 -20 9 -42 12 -48 2 -7 -16 -20 -43 -31 -70
-28 -99 -52 -138 -109 -27 -39 -35 -61 -34 -92 1 -33 3 -35 8 -15 12 46 59
135 83 157 33 31 116 66 142 59 27 -7 66 -42 66 -60 0 -7 -29 -50 -65 -94 -36
-45 -72 -97 -80 -116 -12 -28 -24 -37 -67 -52 -29 -9 -55 -20 -58 -23 -3 -3
-20 -16 -38 -29 -39 -28 -211 -53 -276 -41 -45 8 -96 26 -96 33 0 10 177 60
219 61 25 1 68 7 95 14 27 6 63 9 80 5 30 -6 31 -6 14 13 -10 11 -18 25 -18
31 0 15 -5 15 -38 -2 -15 -7 -76 -26 -137 -41 -207 -51 -278 -76 -359 -123
-80 -47 -165 -85 -218 -96 -22 -5 -26 -3 -22 9 4 8 10 15 15 15 5 0 9 5 9 10
0 6 -26 -11 -58 -36 -73 -59 -75 -63 -28 -34 22 13 50 23 63 22 30 -2 169 50
248 94 40 22 68 31 83 27 12 -3 29 0 37 7 14 12 20 7 16 -14 -1 -5 4 -4 11 2
11 8 28 7 69 -6 l55 -17 -23 -34 c-30 -45 -29 -60 10 -112 18 -24 41 -65 51
-91 22 -59 78 -112 109 -102 12 3 55 23 94 44 l73 37 25 -33 c26 -33 27 -34
103 -34 l77 0 22 -48 c12 -26 31 -61 42 -78 l21 -31 -48 -31 c-26 -17 -72 -60
-102 -95 -30 -36 -58 -63 -62 -61 -5 3 -8 -2 -8 -10 0 -8 -39 -66 -86 -128
l-85 -113 -79 4 c-99 4 -138 -13 -229 -99 -57 -53 -68 -60 -105 -60 -23 0 -66
-7 -96 -15 -30 -8 -56 -15 -58 -15 -1 0 14 21 33 47 102 139 116 164 122 211
9 83 -23 125 -133 172 -81 34 -80 29 -29 161 20 50 34 93 32 96 -9 9 -100
-240 -128 -353 -24 -92 -32 -150 -36 -254 -5 -114 -9 -142 -29 -181 -26 -52
-70 -76 -153 -84 -25 -3 -63 -7 -83 -11 -60 -9 -74 5 -108 116 -28 90 -34 100
-58 106 -15 3 -46 12 -70 20 -23 8 -50 14 -60 14 -28 0 37 -30 90 -41 30 -7
48 -16 48 -25 0 -8 -5 -14 -11 -14 -5 0 -7 5 -4 10 3 6 -1 10 -10 10 -9 0 -13
-4 -10 -10 3 -5 0 -10 -8 -10 -8 0 -18 -11 -21 -25 -4 -14 -13 -25 -21 -25
-10 0 -15 -10 -15 -28 0 -16 -8 -32 -20 -40 -11 -7 -20 -17 -20 -23 0 -7 -8
-19 -18 -28 -11 -9 -21 -23 -25 -31 -4 -11 -6 -10 -7 5 -1 19 -2 19 -9 1 -8
-21 -17 7 -41 126 -6 31 -18 62 -27 70 -14 11 -15 9 -7 -22 9 -40 9 -50 -1
-178 -6 -67 -12 -92 -21 -92 -8 0 -14 -8 -14 -17 0 -15 -2 -16 -9 -4 -8 12
-11 8 -17 -15 -4 -16 -11 -32 -16 -35 -4 -3 -12 -32 -17 -65 -9 -53 -9 -50 -6
36 4 72 2 87 -5 60 -15 -56 -22 -294 -12 -428 8 -115 10 -124 37 -152 36 -38
84 -53 160 -52 112 2 406 76 588 148 48 19 145 54 215 79 70 24 181 65 247 90
66 25 143 55 170 65 28 10 74 28 103 39 44 18 53 19 58 7 7 -18 -25 -224 -38
-250 -6 -10 -30 -44 -54 -75 -47 -60 -69 -115 -115 -286 -25 -89 -32 -142 -39
-280 -9 -162 -22 -248 -55 -360 -13 -47 -31 -73 -116 -169 -20 -23 -53 -69
-73 -103 -38 -61 -65 -83 -201 -163 -107 -63 -116 -60 173 -60 l260 0 6 26 c9
34 53 74 82 74 30 0 58 -41 52 -75 -5 -25 -5 -25 72 -25 l77 0 12 69 c13 83
14 209 1 306 -11 91 -1 112 68 137 29 11 52 22 49 24 -2 2 -21 -3 -41 -11 -43
-18 -49 -16 -66 25 -7 16 -16 27 -21 24 -5 -3 -2 -19 7 -35 16 -32 14 -45 -8
-36 -7 2 -19 26 -26 51 -13 52 -8 70 44 134 15 17 23 32 18 32 -5 0 -22 -19
-39 -43 l-30 -42 -3 34 c-6 61 35 177 79 225 24 25 51 77 44 84 -2 3 -7 -3
-11 -12 -3 -9 -12 -16 -20 -16 -8 0 -14 -5 -14 -11 0 -10 -60 -109 -66 -109
-3 0 0 11 21 110 19 87 64 230 72 230 3 0 12 -8 19 -17 19 -28 28 -8 10 24
-15 27 -14 34 37 187 l54 160 39 12 c34 12 35 13 7 8 -18 -3 -33 -4 -33 -1 0
7 29 89 39 112 5 11 12 28 15 38 3 10 10 15 16 12 6 -4 10 5 10 21 0 41 119
235 207 339 l32 37 6 -46 c4 -25 5 -59 3 -75 -3 -18 0 -27 6 -25 6 2 12 19 13
37 4 64 14 101 23 87 7 -12 11 -12 25 0 9 7 13 20 10 28 -8 22 4 33 26 22 13
-7 19 -7 19 0 0 5 -4 10 -10 10 -5 0 -12 11 -16 25 -6 26 8 51 74 123 27 30
31 42 37 120 14 206 28 302 41 302 7 0 17 -7 22 -16 6 -11 22 -16 48 -15 21 0
69 -7 105 -15 64 -15 67 -17 79 -55 7 -21 17 -39 22 -39 21 0 -5 85 -30 95
-28 11 -152 35 -180 35 -30 1 -76 34 -70 51 6 18 105 48 223 69 61 10 130 26
154 35 24 8 46 14 48 12 6 -7 -25 -97 -46 -133 -24 -40 -27 -59 -8 -47 6 4 16
8 22 8 9 0 16 22 30 87 3 15 13 34 22 43 34 34 39 337 7 413 -8 19 -14 38 -14
42 0 7 57 -15 102 -40 10 -6 25 -10 33 -10 9 0 34 -9 57 -21 29 -15 53 -20 80
-16 21 3 127 49 236 103 180 89 265 142 316 198 l19 21 -7 -25 c-4 -14 -12
-43 -18 -65 -14 -56 -3 -297 17 -363 l16 -53 -74 -82 c-41 -45 -86 -103 -101
-128 -25 -45 -102 -104 -229 -177 -96 -55 -217 -184 -217 -232 0 -13 5 -40 11
-61 11 -36 11 -39 -21 -66 -70 -58 -171 -124 -182 -117 -7 4 -8 3 -4 -5 6 -8
1 -10 -16 -6 -14 4 -31 0 -43 -10 -20 -16 -20 -16 2 -6 27 14 36 14 28 1 -3
-5 0 -10 7 -10 13 0 71 37 185 117 l60 41 12 -33 c12 -33 11 -36 -47 -107 -33
-40 -64 -88 -70 -106 -15 -45 -8 -40 18 13 12 25 43 71 68 102 53 65 48 69 82
-76 l22 -95 -50 -48 c-56 -53 -56 -56 -14 -120 l25 -38 -23 -82 c-12 -46 -24
-98 -27 -116 -3 -19 -11 -36 -18 -39 -18 -6 -162 23 -258 54 -44 13 -81 23
-83 20 -3 -2 42 -18 98 -36 57 -17 114 -38 128 -45 14 -7 46 -17 73 -20 l48
-7 -3 -47 c-3 -79 30 -271 52 -302 11 -16 20 -36 20 -45 0 -28 76 -92 130
-110 l50 -17 -18 -23 c-21 -29 -145 -100 -201 -115 -23 -6 -52 -23 -64 -37
-24 -27 -106 -73 -132 -73 -8 0 -15 -4 -15 -10 0 -5 8 -10 18 -10 27 0 139 58
146 75 3 8 49 36 103 62 54 26 116 64 139 85 l41 38 73 -19 c78 -19 84 -25 93
-84 5 -30 2 -39 -11 -44 -9 -3 -51 -21 -94 -40 -71 -33 -77 -38 -87 -77 -7
-22 -13 -62 -14 -89 -1 -38 -9 -56 -39 -95 -45 -56 -64 -90 -55 -98 4 -4 16 4
28 17 l21 24 -21 -35 c-34 -58 -89 -172 -107 -223 -9 -26 -18 -46 -20 -45 -10
11 29 166 52 206 33 56 7 40 -36 -23 -22 -32 -28 -52 -29 -99 0 -32 -3 -67 -7
-78 -3 -11 -1 -24 5 -28 9 -5 8 -23 -3 -68 l-14 -62 394 0 c217 0 394 2 394 5
0 3 -9 24 -21 46 -11 23 -18 44 -15 47 3 3 6 1 6 -4 0 -14 73 -54 99 -54 24 0
27 -10 9 -28 -9 -9 -7 -12 10 -12 14 0 22 6 22 17 0 15 1 15 18 0 10 -10 32
-17 48 -17 l29 0 -35 21 c-19 12 -38 26 -42 32 -8 13 1 68 13 82 5 5 9 21 9
37 0 15 9 36 20 46 12 11 23 39 27 72 l8 53 91 18 c50 9 121 20 160 24 48 6
63 10 49 16 -22 8 -58 5 -195 -18 -111 -18 -137 -38 -165 -123 -10 -30 -26
-71 -35 -90 -10 -19 -20 -52 -24 -73 -5 -29 -11 -37 -22 -33 -9 3 -19 6 -23 6
-5 0 -25 14 -46 30 l-38 30 2 158 c2 188 8 273 20 285 5 5 48 10 97 12 219 10
268 16 303 38 19 11 29 23 23 25 -6 2 -60 -2 -119 -8 -60 -6 -139 -14 -178
-17 -73 -6 -160 -36 -151 -52 3 -5 -2 -26 -11 -47 -11 -26 -17 -71 -18 -134
-5 -222 -4 -213 -18 -201 -22 18 -43 79 -62 179 -14 75 -16 121 -11 225 7 139
17 181 44 192 10 4 89 9 177 11 88 3 183 10 210 16 52 11 95 34 95 49 0 11
-40 5 -67 -9 -24 -13 -162 -31 -298 -38 -67 -4 -119 -12 -132 -20 -29 -18 -47
-63 -69 -165 l-18 -80 -28 56 c-20 42 -28 72 -28 111 0 91 31 316 47 340 21
32 75 38 288 31 313 -11 463 -32 424 -59 -10 -6 -3 -8 22 -4 34 6 38 4 54 -30
10 -22 14 -46 10 -61 -4 -17 0 -31 10 -43 15 -17 15 -19 -2 -29 -16 -9 -16
-10 5 -11 13 0 37 -13 53 -29 27 -28 29 -35 29 -107 0 -60 3 -75 12 -66 9 9
16 3 32 -25 12 -20 30 -38 41 -39 11 -1 40 -9 65 -18 93 -31 271 -41 388 -21
66 12 21 20 -57 11 -44 -5 -84 -6 -88 -2 -11 11 48 61 106 89 52 24 55 25 197
16 192 -11 221 -20 247 -78 15 -35 18 -59 15 -113 -5 -62 -9 -73 -44 -116 -33
-39 -64 -79 -106 -137 -4 -5 -37 -45 -73 -87 -36 -43 -70 -89 -75 -103 l-10
-25 185 0 185 0 0 459 0 459 -32 36 c-21 24 -37 58 -48 99 l-15 62 -49 5 -48
5 -77 140 c-42 77 -98 173 -124 213 -26 39 -68 105 -93 145 -26 39 -55 84 -65
99 -11 15 -19 30 -19 34 0 3 -13 23 -28 43 -16 20 -64 88 -108 151 l-78 115
-6 140 -5 140 -25 3 c-15 2 -20 0 -13 -5 7 -5 -19 -7 -56 -5 -105 6 -217 -29
-326 -103 -86 -58 -85 -58 -85 -43 0 18 113 91 180 116 129 49 172 62 197 62
25 0 25 1 9 13 -17 13 -18 21 -7 123 6 60 11 115 11 122 0 6 8 12 18 13 10 0
12 2 4 6 -15 6 -8 139 10 186 10 27 11 27 74 -65 35 -50 69 -95 75 -99 8 -4 5
-10 -7 -18 -17 -10 -16 -11 6 -6 22 5 35 -3 82 -52 66 -69 184 -181 146 -138
-18 20 -26 39 -24 57 2 15 -1 25 -5 22 -5 -3 -9 2 -9 10 0 9 -5 16 -11 16 -6
0 -9 6 -6 13 2 6 -3 18 -12 25 -9 8 -11 11 -4 8 7 -4 9 1 6 14 -3 11 -9 17
-14 14 -5 -3 -9 2 -9 11 0 10 -5 13 -12 9 -8 -5 -9 -2 -5 9 4 11 -3 23 -19 36
-15 11 -23 25 -19 32 6 8 2 8 -14 0 -17 -10 -20 -9 -15 4 4 8 11 15 18 15 16
0 -92 61 -134 76 -34 11 -81 72 -110 142 -6 14 -15 21 -22 16 -10 -5 -10 -3 0
7 9 10 15 11 20 3 4 -6 33 -24 66 -40 96 -47 243 -206 311 -336 16 -31 31 -55
33 -53 7 6 -30 80 -63 127 -20 27 -33 54 -29 59 3 6 25 19 48 30 22 10 30 16
16 13 -14 -3 -37 -14 -51 -24 l-26 -18 -61 73 c-34 41 -62 78 -62 83 0 5 18
36 40 68 22 33 41 73 43 89 3 20 23 49 58 85 37 38 63 78 84 125 16 39 44 95
62 125 38 63 43 83 12 49 l-21 -24 5 23 c3 12 2 20 -3 17 -4 -2 -15 23 -25 58
-9 34 -21 67 -26 73 -19 23 2 52 42 59 60 10 46 20 -22 17 -78 -5 -120 3 -146
28 -12 10 -24 16 -28 12 -4 -4 -5 5 -3 21 5 27 -13 39 -27 17 -3 -5 -11 -10
-18 -10 -6 0 -1 7 12 16 20 14 31 15 75 5 29 -6 80 -25 114 -41 34 -16 64 -25
67 -19 4 5 -1 9 -10 9 -10 0 -13 5 -9 12 4 6 3 8 -4 4 -6 -3 -13 -2 -17 4 -3
5 2 10 12 10 17 1 17 2 -1 15 -17 13 -18 15 -3 15 17 0 19 19 5 31 -5 3 -9 17
-10 32 -2 18 -8 27 -19 27 -20 0 -42 24 -31 35 9 10 -110 -54 -122 -66 -18
-16 -26 -9 -16 14 5 12 11 34 15 50 3 15 22 47 43 70 35 40 25 37 -27 -8 -13
-11 -22 -15 -20 -10 3 6 16 36 31 67 49 105 80 208 74 247 -25 182 -62 238
-291 435 -49 43 -105 92 -122 108 -18 16 -33 25 -33 20 0 -6 19 -25 43 -43 23
-19 44 -36 47 -40 3 -3 32 -29 65 -56 146 -122 216 -214 256 -337 25 -77 24
-89 -11 -198 -56 -176 -225 -395 -415 -539 -110 -84 -339 -179 -431 -179 -18
0 -39 -6 -46 -12 -7 -7 -23 -14 -34 -16 -37 -5 -44 64 -19 195 13 67 19 82 47
105 30 24 34 26 45 11 15 -19 59 -154 68 -205 3 -21 10 -38 14 -38 12 0 25
233 18 306 -4 47 -3 53 8 38 7 -10 11 -25 8 -34 -4 -13 -3 -13 5 -1 8 11 14
12 24 4 21 -17 168 -66 176 -59 3 4 2 13 -3 20 -6 7 -31 41 -57 76 -36 46 -56
87 -79 161 -18 55 -29 102 -26 105 3 3 22 -3 44 -14 21 -10 61 -25 88 -32 57
-14 205 -22 205 -10 0 4 -26 27 -57 51 -131 98 -187 182 -222 327 -10 44 -24
90 -31 102 -8 15 -9 20 -1 15 16 -9 85 -149 106 -215 31 -97 48 -93 20 5 -31
106 -89 207 -187 326 -21 26 -38 48 -38 50 0 2 42 4 93 5 91 1 233 34 197 47
-8 2 -51 15 -95 27 -103 28 -195 83 -323 195 -257 224 -323 266 -484 310 l-67
18 37 46 c48 58 72 93 72 105 0 5 -8 2 -18 -7 -10 -10 -27 -17 -38 -16 -17 0
-17 1 2 9 12 5 25 14 30 21 4 7 3 10 -4 5 -6 -3 -70 -27 -144 -53 l-133 -46
-175 -7 c-163 -5 -179 -8 -234 -33 -32 -15 -61 -25 -63 -23 -4 3 13 79 34 151
3 11 -7 2 -22 -20 -15 -22 -43 -57 -61 -78 -34 -37 -35 -37 -45 -15 l-10 23 5
-22 c3 -15 -1 -23 -9 -23 -7 0 -18 -12 -23 -27 -9 -25 -11 -26 -11 -6 -2 54
61 173 128 246 19 20 33 37 30 37 -3 0 -21 -17 -40 -37z m376 -193 c22 -6 9
-8 -48 -9 -59 -1 -84 -6 -105 -20 -32 -23 -98 -36 -107 -21 -3 5 -12 10 -18
10 -7 0 -6 -4 3 -11 12 -9 12 -10 -3 -5 -10 3 -24 6 -30 6 -20 0 34 32 77 46
44 14 183 16 231 4z m62 4 c-3 -3 -12 -4 -19 -1 -8 3 -5 6 6 6 11 1 17 -2 13
-5z m-815 -189 c-68 -25 -146 -47 -175 -50 l-52 -5 53 15 c30 8 86 31 125 50
54 27 83 35 121 34 51 0 50 0 -72 -44z m-47 25 c-3 -5 -11 -10 -16 -10 -6 0
-7 5 -4 10 3 6 11 10 16 10 6 0 7 -4 4 -10z m384 -285 c34 -60 73 -146 86
-190 38 -119 35 -113 50 -85 8 14 14 35 15 47 0 24 -34 200 -49 251 -5 17 -7
32 -5 32 3 0 23 -16 44 -36 22 -21 56 -48 75 -61 l35 -24 -29 -37 c-32 -41
-44 -79 -29 -88 5 -4 32 15 58 41 l49 48 93 -69 c105 -79 152 -108 188 -119
l25 -7 -26 28 c-50 56 -171 216 -166 220 2 3 26 7 53 10 47 5 52 3 124 -51
116 -87 223 -198 259 -267 17 -33 31 -56 31 -49 0 20 -60 193 -71 208 -19 22
-3 15 63 -27 34 -23 72 -43 84 -46 14 -4 28 -22 41 -57 25 -63 69 -213 84
-285 12 -57 7 -358 -6 -402 -7 -24 -7 -24 10 -8 10 9 36 52 59 95 23 43 52 83
65 89 12 6 29 22 38 34 9 12 31 29 51 37 31 13 37 13 51 -2 25 -25 20 -212 -9
-287 -23 -62 -24 -63 -172 -169 -86 -62 -101 -69 -143 -69 -47 0 -47 0 -31 23
9 12 25 40 37 62 17 32 3 21 -71 -58 -93 -98 -207 -183 -350 -259 -36 -19
-105 -56 -153 -82 -104 -57 -144 -70 -172 -57 -11 5 -74 30 -140 56 -130 50
-199 89 -315 176 -87 65 -141 121 -157 164 -25 67 -64 197 -60 201 2 2 24 -5
48 -16 72 -32 90 -26 42 15 -22 19 -55 57 -73 85 -37 57 -84 184 -94 250 -7
44 -6 45 7 15 8 -16 26 -40 39 -53 l26 -23 -9 43 c-13 70 -10 141 11 250 23
119 40 141 137 174 l56 19 21 -29 c12 -16 31 -41 44 -55 l23 -26 -6 41 -6 42
48 -24 c27 -12 57 -32 67 -43 11 -12 24 -21 29 -21 18 0 -106 119 -129 124
-17 5 -23 15 -26 48 -5 50 7 208 22 288 20 106 20 105 35 89 7 -8 41 -63 74
-124z m404 28 l52 -26 -28 -10 c-15 -5 -33 -7 -40 -4 -13 5 -52 67 -42 67 3 0
29 -12 58 -27z m-615 -265 l10 -36 -44 -11 c-26 -7 -55 -24 -73 -44 -17 -17
-31 -26 -31 -19 0 15 45 131 88 227 l27 60 6 -70 c4 -38 11 -86 17 -107z
m-558 -38 c-19 -16 -46 -30 -59 -30 -17 0 -10 7 30 29 68 37 72 37 29 1z m65
-408 c-8 -102 -10 -104 -65 -59 -46 37 -51 50 -28 85 16 27 23 30 39 22 21
-12 26 -1 8 17 -9 9 -5 20 12 44 l22 32 10 -24 c5 -13 6 -66 2 -117z m-23
-112 c4 0 8 -13 8 -30 0 -49 -42 -41 -123 25 l-36 29 21 38 22 38 50 -50 c27
-28 54 -50 58 -50z m-210 38 c33 -10 38 -15 34 -32 -15 -53 -18 -94 -7 -100 7
-5 11 2 11 18 0 27 7 30 60 27 27 -2 70 -20 70 -30 0 -3 -19 -5 -42 -3 -34 3
-48 -2 -68 -21 -26 -25 -39 -23 -82 12 -10 7 -24 11 -33 8 -8 -4 -15 -2 -15 2
0 5 6 12 13 14 7 3 4 6 -7 6 -16 1 -17 6 -11 49 10 70 11 70 77 50z m88 -53
c11 -13 8 -15 -14 -15 -25 0 -33 10 -19 23 10 11 19 8 33 -8z m2950 -170 c0
-8 -4 -15 -10 -15 -5 0 -7 7 -4 15 4 8 8 15 10 15 2 0 4 -7 4 -15z m-10 -35
c0 -5 -9 -14 -20 -20 -16 -9 -18 -8 -14 5 3 8 10 12 15 9 5 -3 9 0 9 5 0 6 2
11 5 11 3 0 5 -4 5 -10z m-2649 -92 c10 -18 8 -24 -11 -40 -21 -17 -50 -24
-50 -13 0 17 31 75 39 75 6 0 16 -10 22 -22z m45 -93 c16 -24 38 -49 50 -56
13 -6 25 -23 29 -38 10 -38 46 -121 54 -121 3 0 26 -17 50 -38 l44 -38 -29
-45 c-17 -24 -36 -57 -43 -74 l-13 -30 -18 40 c-9 22 -27 69 -40 105 -27 76
-78 181 -128 263 -30 48 -33 60 -21 68 25 16 37 10 65 -36z m140 -22 c22 -73
61 -131 124 -185 28 -24 50 -46 50 -50 0 -20 -44 -17 -84 6 -78 46 -137 140
-138 221 -2 83 23 87 48 8z m2459 35 c-16 -53 -68 -120 -122 -156 -42 -29 -45
-28 -37 16 16 87 81 159 147 161 14 1 17 -4 12 -21z m-2755 -8 c0 -25 31 -99
35 -85 2 6 6 31 10 58 7 53 15 53 49 -2 83 -131 161 -327 221 -554 l34 -127
-38 -20 c-21 -10 -52 -31 -70 -45 l-31 -27 -92 29 c-75 22 -112 28 -193 28
-77 0 -103 4 -112 15 -17 21 -75 122 -71 124 2 1 34 17 72 36 l68 34 -6 41
c-10 71 -67 227 -103 284 l-35 55 26 19 c19 14 26 28 26 53 0 30 3 34 28 34
15 1 56 16 92 34 77 40 90 42 90 16z m2776 -117 c15 -34 10 -103 -6 -103 -13
0 -52 81 -46 96 3 8 13 14 23 14 13 0 14 3 5 12 -15 15 -16 32 -1 22 6 -3 17
-22 25 -41z m-979 -120 c-33 -19 -36 -16 -19 22 16 35 16 35 28 13 11 -20 10
-25 -9 -35z m1015 -7 c6 4 8 1 5 -7 -3 -8 -11 -31 -18 -52 -8 -26 -17 -37 -28
-35 -9 2 -16 11 -15 19 1 11 -10 16 -39 18 -43 2 -77 16 -77 31 0 5 32 12 70
16 39 4 73 11 77 17 5 8 8 7 11 -1 2 -7 8 -9 14 -6z m-1065 -16 c-1 -11 -7
-20 -14 -20 -15 0 -15 2 -7 24 9 23 23 20 21 -4z m123 -33 c0 -3 -21 -8 -47
-12 -27 -3 -63 -7 -80 -10 -18 -2 -33 0 -33 6 0 5 21 9 46 9 47 0 84 13 84 31
0 5 -12 7 -27 4 l-28 -6 24 14 c23 14 26 13 43 -8 10 -13 18 -26 18 -28z
m-216 -12 c3 -9 0 -15 -9 -15 -9 0 -12 6 -9 15 4 8 7 15 9 15 2 0 5 -7 9 -15z
m-1083 -27 c12 -22 15 -95 4 -125 -12 -36 12 -28 37 12 13 19 26 35 29 35 16
0 81 -212 68 -223 -2 -3 -22 -7 -44 -10 -39 -6 -44 -4 -120 61 -44 37 -110 87
-146 111 l-66 45 14 34 c32 76 34 77 128 77 72 0 88 -3 96 -17z m1609 -18
c-10 -6 -11 -10 -2 -10 6 0 12 -5 12 -11 0 -5 -4 -7 -10 -4 -5 3 -10 -3 -10
-15 0 -16 -4 -20 -19 -15 -11 3 -22 2 -25 -3 -8 -13 -69 -9 -73 6 -3 6 0 12 7
12 6 0 8 -4 5 -10 -3 -5 1 -10 9 -10 8 0 18 5 21 10 3 6 1 10 -4 10 -21 0 -11
18 17 28 49 19 95 27 72 12z m347 -37 c14 -34 17 -36 24 -18 4 11 8 15 8 8 1
-6 4 -19 8 -29 4 -11 3 -15 -5 -10 -6 4 -12 -3 -14 -16 l-3 -23 -22 22 c-25
25 -38 65 -29 88 8 23 16 18 33 -22z m-2037 -174 c80 -60 106 -86 97 -95 -3
-3 -34 -9 -69 -14 -35 -5 -78 -14 -95 -20 -18 -7 -38 -10 -44 -8 -6 2 -24 46
-40 98 -28 94 -35 141 -23 153 7 7 62 -29 174 -114z m2210 43 c0 -10 -19 -30
-45 -47 -25 -15 -43 -30 -40 -33 2 -3 16 3 29 12 33 21 64 22 46 1 -6 -8 -9
-19 -6 -24 13 -20 9 -83 -5 -92 -21 -13 -29 -11 -22 7 8 22 -22 44 -60 44 -16
0 -26 4 -22 10 3 6 19 10 36 10 16 0 29 5 29 10 0 6 -10 8 -24 4 -37 -9 -44
16 -12 40 15 12 39 33 54 48 32 32 42 35 42 10z m30 -92 c0 -11 -4 -20 -10
-20 -5 0 -10 9 -10 20 0 11 5 20 10 20 6 0 10 -9 10 -20z m-545 -52 c136 -18
277 -75 309 -123 13 -19 17 -47 17 -107 0 -44 -3 -83 -6 -86 -3 -3 -5 10 -5
28 0 58 -22 110 -69 159 l-46 49 -73 0 c-69 0 -75 -2 -120 -37 -26 -21 -55
-47 -65 -59 -11 -11 -25 -18 -32 -16 -7 3 -16 1 -20 -5 -4 -7 1 -8 12 -4 13 4
11 -1 -9 -23 -37 -41 -108 -137 -108 -147 0 -4 -19 12 -43 37 -24 26 -48 46
-55 46 -7 0 -12 4 -12 8 0 5 -18 17 -40 27 -28 12 -37 21 -28 26 20 13 2 22
-20 10 -32 -17 -50 -13 -27 6 15 12 16 14 3 10 -9 -3 -45 -8 -80 -11 l-63 -5
75 14 c41 7 77 14 79 14 2 1 -3 8 -10 17 -11 14 -10 18 6 30 11 7 25 18 32 24
7 5 28 10 47 10 19 0 36 4 38 9 2 5 59 15 127 22 l124 13 18 -23 19 -23 24 29
c19 21 21 29 10 31 -8 2 -14 7 -14 12 0 12 -59 27 -145 36 -51 5 -63 9 -45 14
28 7 77 4 195 -12z m-298 -4 c-3 -3 -12 -4 -19 -1 -8 3 -5 6 6 6 11 1 17 -2
13 -5z m86 -11 c-7 -2 -19 -2 -25 0 -7 3 -2 5 12 5 14 0 19 -2 13 -5z m-1593
-68 c-64 -33 -120 -88 -120 -116 0 -27 -23 -108 -40 -139 -6 -11 -22 -62 -35
-113 -14 -54 -23 -80 -24 -62 -2 73 86 354 123 392 19 20 108 62 131 62 6 0
-10 -11 -35 -24z m1800 15 c0 -5 -2 -10 -4 -10 -3 0 -8 5 -11 10 -3 6 -1 10 4
10 6 0 11 -4 11 -10z m-2135 -51 c91 -20 195 -50 195 -55 0 -2 -5 -15 -12 -29
-10 -23 -28 -34 -28 -17 0 15 -88 62 -137 72 -37 8 -63 8 -95 0 -82 -21 -173
-67 -188 -94 -7 -14 -9 -15 -6 -3 3 9 3 17 0 17 -13 0 -74 -54 -74 -66 0 -7
-4 -16 -10 -19 -6 -4 -7 1 -3 11 5 14 3 15 -13 5 -27 -15 -72 -54 -54 -46 8 4
6 -1 -5 -10 -16 -13 -17 -17 -6 -24 9 -6 10 -11 2 -15 -6 -4 -11 -2 -11 4 0
16 -57 -46 -65 -71 -4 -10 -11 -19 -16 -19 -18 0 65 130 118 185 118 121 195
174 255 175 15 0 30 5 33 10 8 14 16 13 120 -11z m2183 -8 c-18 -16 -35 -28
-37 -26 -4 5 51 54 62 55 4 0 -7 -13 -25 -29z m-718 -16 c0 -2 -11 -21 -25
-41 -14 -20 -23 -40 -20 -44 2 -4 -7 -12 -20 -18 -14 -7 -25 -9 -25 -7 0 12
73 115 81 115 5 0 9 -2 9 -5z m740 1 c0 -2 -16 -14 -35 -26 -39 -24 -48 -60
-15 -60 41 0 50 -75 19 -162 -9 -25 -20 -38 -32 -38 -10 0 -15 -5 -12 -11 4
-5 -1 -19 -10 -29 -10 -11 -15 -26 -12 -34 5 -12 0 -15 -16 -13 -18 2 -22 -3
-20 -23 3 -23 2 -24 -11 -7 -13 16 -14 16 -20 -8 -4 -14 -11 -25 -16 -25 -6 0
-6 9 0 26 15 38 11 52 -6 24 -14 -24 -15 -24 -11 -2 3 12 1 20 -3 17 -4 -3
-22 25 -39 61 -31 66 -31 67 -13 95 25 41 154 186 171 193 11 5 12 4 1 -9 -18
-22 -4 -18 38 10 38 26 42 28 42 21z m13 -33 c3 -5 -6 -9 -20 -10 -19 -1 -22
1 -12 8 17 11 26 11 32 2z m-482 -117 c95 -39 165 -114 212 -228 20 -48 39
-105 42 -125 35 -210 63 -260 211 -376 48 -38 85 -77 113 -121 22 -36 41 -67
41 -70 0 -2 -16 1 -35 7 -19 6 -35 13 -35 17 0 3 -7 15 -15 26 -15 18 -16 18
-13 -7 3 -25 -24 -64 -36 -52 -3 4 -6 -10 -6 -31 0 -21 4 -35 9 -31 38 23 39
-148 2 -245 -51 -135 -169 -275 -282 -335 -38 -20 -69 -41 -69 -46 0 -7 -67
-10 -189 -8 -181 2 -190 1 -220 -20 -17 -12 -31 -30 -31 -39 0 -9 -5 -34 -11
-55 l-10 -39 -72 7 c-100 10 -243 68 -301 121 -87 81 -123 332 -75 525 12 46
28 92 36 101 14 15 11 24 -23 87 l-38 71 27 28 c15 15 44 34 64 41 21 7 50 25
66 39 23 22 27 33 27 84 0 45 3 58 15 58 40 0 165 182 165 239 0 41 -29 90
-68 118 l-40 28 3 68 c3 72 7 80 70 123 29 20 117 57 160 68 11 3 70 4 130 2
92 -3 121 -7 176 -30z m-2080 -49 c-10 -9 -11 -8 -5 6 3 10 9 15 12 12 3 -3 0
-11 -7 -18z m219 -6 c-16 -31 -12 -48 6 -23 20 29 54 29 54 1 0 -14 5 -19 13
-16 10 4 13 -2 9 -20 -4 -22 -2 -25 14 -21 16 4 19 -1 21 -38 1 -28 -3 -44
-12 -48 -8 -3 -17 -21 -21 -40 -3 -21 -12 -36 -20 -36 -11 0 -12 -4 -4 -19 5
-11 10 -29 10 -41 0 -14 4 -19 13 -14 7 5 6 0 -3 -11 -14 -17 -14 -18 7 -7 25
14 42 12 60 -5 22 -20 14 -24 -12 -7 -22 15 -26 14 -50 -3 -14 -10 -35 -39
-46 -65 -12 -27 -26 -48 -31 -48 -6 0 -7 7 -4 16 3 8 -2 23 -11 32 -12 12 -18
13 -21 4 -2 -7 -8 -10 -13 -6 -5 3 -9 0 -9 -6 0 -6 -4 -8 -10 -5 -5 3 -33 -4
-61 -16 l-52 -23 -22 28 -22 28 -6 -23 c-4 -13 -9 -21 -12 -17 -3 3 4 32 17
64 23 62 23 62 35 109 10 38 131 235 144 235 6 0 7 -4 4 -10 -3 -5 -1 -10 5
-10 7 0 10 7 6 15 -7 19 10 65 24 65 7 0 8 -6 0 -19z m-975 -1 c3 -6 -1 -7 -9
-4 -18 7 -21 14 -7 14 6 0 13 -4 16 -10z m825 -12 c0 -10 -14 -32 -30 -50
l-31 -32 20 44 c11 24 18 47 16 50 -2 4 2 7 10 7 8 0 15 -9 15 -19z m30 12 c0
-5 -4 -10 -10 -10 -5 0 -10 5 -10 10 0 6 5 10 10 10 6 0 10 -4 10 -10z m-121
-101 c-12 -46 -22 -85 -23 -86 0 -1 -16 12 -34 28 -32 29 -32 29 -7 25 18 -3
25 0 25 10 0 8 -4 13 -9 9 -5 -3 -12 -1 -16 5 -3 5 -1 10 4 10 6 0 11 5 11 10
0 6 -8 10 -17 10 -15 0 -16 2 -3 10 11 7 18 3 27 -13 12 -21 12 -21 14 8 1 17
3 23 6 13 6 -24 23 -23 23 1 0 22 11 54 16 48 2 -2 -6 -41 -17 -88z m551 -104
l0 -145 -47 -45 c-44 -42 -80 -63 -53 -30 31 38 69 138 74 197 9 99 18 168 22
168 2 0 4 -65 4 -145z m959 123 c-7 -13 -42 -52 -78 -88 -73 -72 -101 -131
-102 -216 l0 -49 -19 45 c-30 73 -26 99 28 171 46 60 153 159 174 159 5 0 3
-10 -3 -22z m39 -54 c-3 -59 -1 -67 16 -70 32 -5 70 -39 79 -71 20 -69 -57
-215 -135 -258 -20 -11 -40 -17 -43 -13 -4 4 5 26 19 51 28 47 32 86 15 156
-6 27 -6 48 -1 53 17 17 1 45 -34 64 -19 10 -34 22 -34 26 0 4 18 19 40 33 23
15 46 39 54 60 8 19 18 35 21 35 3 0 4 -30 3 -66z m1660 -24 c17 -27 10 -25
-19 6 -13 14 -17 23 -9 19 9 -3 21 -14 28 -25z m-748 -20 c0 -5 -4 -10 -10
-10 -5 0 -10 5 -10 10 0 6 5 10 10 10 6 0 10 -4 10 -10z m-2683 -44 c103 -29
177 -71 167 -94 -3 -10 -9 -27 -12 -40 -6 -28 -42 -51 -42 -27 0 10 5 13 11 9
7 -4 10 -1 7 6 -6 20 -26 23 -30 5 -3 -15 -5 -15 -23 0 -11 9 -14 14 -7 10 7
-4 19 -1 27 5 12 10 12 14 1 25 -7 7 -21 15 -32 18 -10 2 -1 3 21 1 l40 -3
-50 24 c-27 13 -74 28 -103 34 -66 14 -192 14 -226 1 -14 -5 -26 -6 -26 -2 0
14 113 51 155 51 22 0 77 -10 122 -23z m2693 14 c0 -5 -5 -10 -11 -10 -5 0 -7
5 -4 10 3 6 8 10 11 10 2 0 4 -4 4 -10z m-30 -26 c0 -8 -19 -13 -24 -6 -3 5 1
9 9 9 8 0 15 -2 15 -3z m-36 -20 c3 -8 2 -12 -4 -9 -6 3 -10 10 -10 16 0 14 7
11 14 -7z m-2023 -115 c21 -41 -13 -143 -54 -158 -35 -13 -47 -2 -47 44 0 52
12 87 40 115 26 26 46 26 61 -1z m-1031 -1 c-61 -14 -171 -44 -193 -53 -13 -5
-16 -3 -12 7 6 14 37 23 155 47 61 12 106 11 50 -1z m1070 -8 c0 -5 -4 -10
-10 -10 -5 0 -10 5 -10 10 0 6 5 10 10 10 6 0 10 -4 10 -10z m-13 -62 c-3 -8
-6 -5 -6 6 -1 11 2 17 5 13 3 -3 4 -12 1 -19z m-177 -8 c0 -5 -2 -10 -4 -10
-3 0 -8 5 -11 10 -3 6 -1 10 4 10 6 0 11 -4 11 -10z m-33 -22 c-3 -8 -6 -5 -6
6 -1 11 2 17 5 13 3 -3 4 -12 1 -19z m50 -20 c-3 -8 -6 -5 -6 6 -1 11 2 17 5
13 3 -3 4 -12 1 -19z m151 2 c-7 -10 -14 -18 -15 -16 -6 6 9 36 18 36 5 0 4
-9 -3 -20z m-411 -12 c-3 -8 -6 -5 -6 6 -1 11 2 17 5 13 3 -3 4 -12 1 -19z
m348 -48 c-3 -5 -14 -10 -23 -9 -14 0 -13 2 3 9 27 11 27 11 20 0z m1118 -121
c-16 -28 -53 -58 -53 -44 0 12 52 75 62 75 5 0 1 -14 -9 -31z m-1250 -60 c-8
-8 -13 -7 -18 2 -5 8 -4 10 3 5 7 -4 12 -2 12 5 0 7 3 9 7 6 4 -4 2 -12 -4
-18z m-173 -169 c24 -15 15 -97 -18 -150 -34 -54 -58 -62 -72 -24 -16 41 6
119 48 167 17 19 21 20 42 7z m2627 -737 c20 -58 104 -222 123 -241 27 -29 50
-119 38 -152 l-8 -23 -25 23 c-21 20 -25 33 -25 83 0 55 -3 62 -45 110 -39 45
-45 58 -45 96 0 31 -7 53 -25 76 -22 30 -24 45 -3 45 5 0 11 -8 15 -17z m-913
-239 c11 -4 16 -19 16 -48 1 -65 40 -205 71 -251 3 -5 9 -32 12 -60 5 -42 5
-45 -4 -22 -16 40 -30 33 -23 -12 5 -32 2 -45 -19 -73 -26 -34 -43 -81 -39
-108 2 -11 -2 -9 -13 4 -8 11 -15 33 -15 49 0 15 -4 36 -10 46 -10 20 16 88
48 124 8 9 13 19 10 22 -11 11 -39 -9 -60 -43 -12 -21 -23 -39 -25 -41 -2 -2
-20 14 -40 35 -21 22 -54 52 -74 67 l-35 27 0 100 c1 115 -8 102 111 157 82
38 70 34 89 27z m-2015 -50 c17 -38 13 -93 -10 -141 -11 -24 -24 -43 -28 -43
-18 0 -43 41 -48 79 -7 49 1 80 27 114 24 30 42 27 59 -9z m2151 -444 c0 -51
-4 -64 -28 -91 -25 -28 -33 -31 -58 -24 -16 4 -23 10 -16 12 6 3 12 11 12 19
0 27 70 144 86 144 2 0 4 -27 4 -60z"/>
<path d="M3515 4491 c-68 -33 -97 -63 -101 -105 -2 -29 0 -36 9 -27 15 15 30
14 22 -1 -4 -7 3 -2 14 11 12 12 18 28 14 35 -3 6 -3 8 1 4 5 -4 18 2 29 13
39 36 147 62 237 56 44 -2 80 -1 80 3 0 18 -69 30 -164 30 -78 0 -110 -5 -141
-19z"/>
<path d="M3850 4371 c0 -6 4 -13 10 -16 6 -3 7 1 4 9 -7 18 -14 21 -14 7z"/>
<path d="M3682 4320 c3 -10 -6 -19 -31 -27 l-36 -12 39 5 c26 4 42 1 47 -8 7
-10 9 -10 9 3 0 9 12 21 26 28 15 6 24 14 21 17 -3 3 -15 0 -27 -6 -16 -9 -25
-8 -37 2 -14 11 -15 11 -11 -2z"/>
<path d="M3102 4240 c-1 -19 -11 -49 -22 -67 l-19 -32 25 -46 c27 -47 50 -61
38 -22 -3 12 -14 33 -24 47 -16 21 -16 27 -3 46 9 14 13 39 10 66 -3 38 -4 39
-5 8z"/>
<path d="M2782 4210 c-43 -31 -73 -76 -71 -107 0 -11 3 -13 6 -5 2 6 8 10 13
7 4 -3 13 8 20 25 19 46 52 61 136 63 42 2 78 -1 80 -5 7 -11 24 -10 24 1 0
21 -68 51 -117 51 -40 0 -59 -6 -91 -30z"/>
<path d="M3715 4120 c-15 -6 -9 -9 27 -9 46 -1 46 -1 53 -41 4 -22 4 -70 0
-107 -4 -47 -3 -63 4 -52 6 8 13 45 17 80 9 86 -12 139 -53 138 -15 0 -37 -4
-48 -9z"/>
<path d="M4308 3982 c-74 -59 -168 -150 -168 -163 0 -9 6 -7 18 7 12 15 160
147 201 181 2 1 0 3 -6 3 -6 0 -26 -12 -45 -28z"/>
<path d="M2920 3770 c-8 -5 -12 -12 -9 -15 4 -3 12 1 19 10 14 17 11 19 -10 5z"/>
<path d="M3234 3478 c-10 -16 4 -22 28 -11 l22 10 -22 5 c-12 4 -25 2 -28 -4z"/>
<path d="M3298 3463 c6 -2 18 -2 25 0 6 3 1 5 -13 5 -14 0 -19 -2 -12 -5z"/>
<path d="M2334 3648 l-19 -23 23 19 c21 18 27 26 19 26 -2 0 -12 -10 -23 -22z"/>
<path d="M2265 3600 c-22 -16 -55 -32 -73 -36 -18 -3 -35 -11 -39 -17 -18 -29
118 33 147 67 18 22 11 19 -35 -14z"/>
<path d="M4508 3323 c7 -3 16 -2 19 1 4 3 -2 6 -13 5 -11 0 -14 -3 -6 -6z"/>
<path d="M4476 3307 c3 -10 9 -15 12 -12 3 3 0 11 -7 18 -10 9 -11 8 -5 -6z"/>
<path d="M4493 2926 c14 -21 14 -25 -1 -40 -9 -9 -12 -16 -6 -16 5 0 17 8 25
18 15 17 14 21 -2 40 -23 29 -35 28 -16 -2z"/>
<path d="M4465 2910 c3 -5 13 -10 21 -10 8 0 12 5 9 10 -3 6 -13 10 -21 10 -8
0 -12 -4 -9 -10z"/>
<path d="M4188 2823 c7 -3 16 -2 19 1 4 3 -2 6 -13 5 -11 0 -14 -3 -6 -6z"/>
<path d="M4520 2814 c0 -8 5 -12 10 -9 6 4 8 11 5 16 -9 14 -15 11 -15 -7z"/>
<path d="M4270 2407 c0 -30 4 -46 10 -42 13 8 13 55 0 75 -7 11 -10 2 -10 -33z"/>
<path d="M4242 2371 c-7 -19 -10 -36 -8 -38 8 -8 27 38 24 55 -3 11 -8 5 -16
-17z"/>
<path d="M4206 2381 c-4 -7 -5 -15 -2 -18 9 -9 19 4 14 18 -4 11 -6 11 -12 0z"/>
<path d="M4081 2048 c0 -9 -4 -25 -7 -35 -5 -17 -5 -17 6 0 6 10 9 25 7 35 -4
15 -5 15 -6 0z"/>
<path d="M4041 2014 c0 -11 3 -14 6 -6 3 7 2 16 -1 19 -3 4 -6 -2 -5 -13z"/>
<path d="M4401 1823 c-1 -18 4 -33 9 -33 12 0 12 17 0 45 -7 17 -9 15 -9 -12z"/>
<path d="M4382 1780 c0 -14 2 -19 5 -12 2 6 2 18 0 25 -3 6 -5 1 -5 -13z"/>
<path d="M4371 1374 c-6 -15 -9 -29 -7 -32 3 -2 10 8 16 23 14 36 7 43 -9 9z"/>
<path d="M4427 1394 c-4 -4 -7 -14 -7 -23 0 -11 3 -12 11 -4 6 6 10 16 7 23
-2 6 -7 8 -11 4z"/>
<path d="M4453 1373 c-13 -27 -9 -44 6 -27 13 14 24 54 14 54 -4 0 -14 -12
-20 -27z"/>
<path d="M4240 1238 c0 -3 -7 -23 -16 -44 -14 -33 -14 -36 -1 -26 16 14 31 61
22 70 -3 3 -5 3 -5 0z"/>
<path d="M4167 1213 c-4 -3 -7 -11 -7 -17 0 -6 5 -5 12 2 6 6 9 14 7 17 -3 3
-9 2 -12 -2z"/>
<path d="M4200 1200 c-6 -12 -9 -24 -7 -27 3 -2 11 5 17 17 6 12 9 24 7 27 -3
2 -11 -5 -17 -17z"/>
<path d="M2311 2654 c0 -11 3 -14 6 -6 3 7 2 16 -1 19 -3 4 -6 -2 -5 -13z"/>
<path d="M2225 2600 c-3 -6 1 -7 9 -4 18 7 21 14 7 14 -6 0 -13 -4 -16 -10z"/>
<path d="M2217 2553 c3 -7 6 -13 8 -13 2 0 5 6 8 13 3 8 -1 14 -8 14 -7 0 -11
-6 -8 -14z"/>
<path d="M2335 2351 c-3 -5 -2 -12 3 -15 5 -3 9 1 9 9 0 17 -3 19 -12 6z"/>
<path d="M3661 705 c-17 -20 -31 -40 -31 -46 0 -6 12 4 27 23 16 18 35 38 43
45 9 7 10 12 4 13 -7 0 -26 -16 -43 -35z"/>
<path d="M3673 663 c-16 -21 -33 -45 -37 -53 -4 -8 3 -2 16 15 13 16 31 38 41
48 10 10 17 21 14 23 -3 3 -18 -12 -34 -33z"/>
<path d="M4400 5417 c0 -2 14 -16 31 -33 22 -20 28 -23 19 -8 -11 18 -50 50
-50 41z"/>
<path d="M4564 5202 c13 -26 32 -75 41 -107 23 -83 25 -89 30 -83 14 14 -71
238 -90 238 -3 0 6 -22 19 -48z"/>
<path d="M4492 5125 c15 -16 29 -27 31 -24 3 2 -10 15 -27 28 l-31 24 27 -28z"/>
<path d="M4434 5044 c31 -25 63 -58 71 -75 17 -31 39 -41 28 -11 -15 41 -111
132 -140 132 -8 0 10 -21 41 -46z"/>
<path d="M4480 5066 c0 -5 19 -30 43 -55 23 -26 52 -60 65 -76 l23 -30 -22 42
c-21 40 -109 136 -109 119z"/>
<path d="M4398 4980 c32 -30 27 -32 -13 -8 -20 11 -38 18 -41 15 -3 -3 15 -17
39 -32 25 -14 51 -32 57 -40 7 -8 17 -12 23 -8 5 3 18 -5 28 -18 13 -16 19
-19 19 -9 0 21 -9 32 -63 79 -48 41 -90 59 -49 21z"/>
<path d="M2232 4690 c0 -14 2 -19 5 -12 2 6 2 18 0 25 -3 6 -5 1 -5 -13z"/>
<path d="M2041 4524 c0 -11 3 -14 6 -6 3 7 2 16 -1 19 -3 4 -6 -2 -5 -13z"/>
<path d="M2141 4385 c1 -29 34 -101 42 -89 3 6 -5 33 -18 60 -14 28 -24 40
-24 29z"/>
<path d="M5105 4355 c13 -37 17 -190 7 -227 -6 -21 -7 -38 -2 -38 13 0 21 31
27 106 7 83 -1 132 -23 160 -15 19 -16 19 -9 -1z"/>
<path d="M4874 4258 c3 -13 9 -51 13 -85 7 -69 23 -76 23 -10 0 53 -18 117
-32 117 -6 0 -8 -9 -4 -22z"/>
<path d="M4775 4193 c4 -38 9 -70 11 -72 10 -11 15 36 9 84 -10 82 -28 70 -20
-12z"/>
<path d="M5011 4203 c-1 -34 4 -65 9 -68 12 -8 12 81 0 110 -6 14 -9 2 -9 -42z"/>
<path d="M5067 4200 c-4 -36 -10 -78 -13 -94 -5 -20 -3 -27 4 -22 19 11 36
112 25 148 -9 31 -10 30 -16 -32z"/>
<path d="M4824 4209 c3 -17 6 -47 6 -65 0 -19 5 -34 10 -34 11 0 13 51 4 99
-4 17 -11 31 -16 31 -6 0 -8 -13 -4 -31z"/>
<path d="M5290 4236 c0 -2 7 -7 16 -10 8 -3 12 -2 9 4 -6 10 -25 14 -25 6z"/>
<path d="M4967 4203 c-4 -3 -7 -30 -7 -60 0 -29 -7 -70 -15 -90 -18 -42 -18
-43 -5 -43 20 0 40 61 41 125 1 66 -2 81 -14 68z"/>
<path d="M5367 4199 c7 -7 15 -10 18 -7 3 3 -2 9 -12 12 -14 6 -15 5 -6 -5z"/>
<path d="M801 4083 c8 -10 20 -22 27 -26 6 -4 12 -17 12 -27 0 -17 -2 -18 -27
-4 -37 18 -51 18 -32 -2 22 -22 13 -66 -12 -59 -55 15 -59 13 -14 -8 53 -25
49 -43 -6 -27 -69 20 -84 9 -19 -13 51 -18 65 -27 66 -44 1 -20 -2 -21 -75
-17 l-76 5 45 -24 c25 -14 60 -28 78 -32 17 -3 32 -11 32 -17 0 -9 -50 -6
-151 8 -21 3 -40 1 -43 -5 -4 -6 -1 -9 7 -5 8 3 21 -2 30 -10 9 -10 17 -12 19
-5 2 7 28 3 73 -9 l70 -20 -68 -3 c-37 -2 -72 0 -78 6 -6 5 -9 5 -9 -3 0 -20
-27 -13 -33 9 -5 18 -8 19 -26 7 -12 -7 -21 -18 -21 -25 0 -7 -3 -13 -8 -13
-4 0 -6 -20 -4 -45 l4 -45 42 0 c22 -1 60 -5 83 -9 31 -6 46 -5 53 4 8 9 0 14
-30 19 -22 3 -52 3 -65 0 -19 -5 -25 -2 -25 11 0 17 9 17 98 0 9 -2 25 -4 34
-4 14 -1 15 -6 7 -33 -18 -66 -28 -76 -80 -80 -45 -3 -49 -1 -49 20 0 21 3 22
50 16 59 -8 70 10 13 20 -71 11 -84 8 -79 -17 2 -13 1 -29 -3 -36 -10 -15 -41
-3 -41 16 0 13 -3 13 -16 2 -14 -11 -18 -10 -30 5 -9 13 -10 24 -4 37 6 10 10
24 9 31 0 7 -7 -2 -15 -20 -14 -33 -6 -72 16 -72 5 0 7 -7 4 -15 -4 -8 -1 -15
5 -15 6 0 11 -9 11 -21 0 -30 -24 -18 -31 17 -6 28 -7 27 -8 -8 -1 -27 4 -40
18 -48 11 -5 22 -19 26 -29 6 -20 6 -20 52 0 25 11 48 18 50 15 6 -6 -43 -122
-65 -153 -29 -42 -46 -77 -33 -69 18 12 82 134 112 214 27 72 36 84 136 180
65 62 114 101 123 99 12 -3 4 21 -26 83 -37 76 -42 97 -46 172 -4 79 -7 88
-33 112 -32 30 -44 34 -24 9z m-191 -362 c0 -5 42 -7 92 -4 107 5 116 -2 13
-11 -38 -4 -84 -9 -101 -12 -32 -6 -51 7 -39 26 8 12 35 13 35 1z m-12 -64 c2
-10 -3 -17 -12 -17 -10 0 -16 9 -16 21 0 24 23 21 28 -4z m80 -162 c-14 -30
-89 -70 -99 -53 -12 18 -3 25 41 32 22 3 40 11 40 17 0 6 -7 8 -16 5 -50 -19
-64 -18 -64 3 0 19 6 21 55 21 54 0 55 0 43 -25z"/>
<path d="M1551 4097 c-1 -4 8 -35 20 -69 11 -34 18 -71 15 -82 -3 -12 -25 -48
-50 -80 -33 -44 -54 -62 -85 -73 -51 -17 -111 -52 -111 -64 0 -14 20 -11 54
10 17 10 50 22 74 26 31 5 47 14 59 33 70 115 85 132 108 132 30 0 105 29 105
41 0 4 -21 -1 -46 -11 -70 -30 -76 -28 -102 43 -29 78 -40 104 -41 94z"/>
<path d="M1741 4090 c-1 -3 8 -27 19 -55 10 -27 19 -43 19 -35 0 14 -36 101
-38 90z"/>
<path d="M1374 3979 c6 -54 4 -59 -38 -120 -49 -73 -99 -172 -83 -166 6 2 21
21 32 43 12 21 36 62 53 89 17 28 37 61 43 75 15 31 14 94 -1 117 -9 14 -10 5
-6 -38z"/>
<path d="M1840 4000 c-24 -15 -7 -19 20 -5 15 8 19 14 10 14 -8 1 -22 -3 -30
-9z"/>
<path d="M1160 3995 c0 -5 5 -17 10 -25 5 -8 10 -10 10 -5 0 6 -5 17 -10 25
-5 8 -10 11 -10 5z"/>
<path d="M1215 3961 c3 -12 2 -21 -2 -21 -10 0 -27 -46 -38 -98 -4 -19 -11
-30 -18 -25 -7 4 -8 0 -3 -13 5 -10 12 -32 17 -48 9 -30 36 -66 50 -66 4 0 -2
11 -15 23 -20 21 -23 31 -19 73 7 72 20 117 41 139 17 19 17 21 -1 38 -18 18
-19 18 -12 -2z"/>
<path d="M1866 3959 c-16 -4 -33 -6 -37 -3 -4 2 -10 0 -14 -6 -8 -13 54 -13
75 0 21 13 9 18 -24 9z"/>
<path d="M1525 3940 c-28 -7 -28 -8 -5 -9 14 0 32 4 40 9 17 11 8 11 -35 0z"/>
<path d="M1285 3920 l-40 -7 35 -1 c19 -1 42 3 50 8 16 11 14 11 -45 0z"/>
<path d="M1664 3915 c-17 -13 -17 -14 -2 -15 9 0 20 5 23 11 11 17 0 20 -21 4z"/>
<path d="M632 3900 c0 -14 2 -19 5 -12 2 6 2 18 0 25 -3 6 -5 1 -5 -13z"/>
<path d="M1122 3875 c12 -24 23 -43 26 -41 4 5 -36 86 -43 86 -3 0 5 -20 17
-45z"/>
<path d="M608 3863 c7 -3 16 -2 19 1 4 3 -2 6 -13 5 -11 0 -14 -3 -6 -6z"/>
<path d="M1220 3819 c0 -5 -4 -7 -10 -4 -13 8 -13 -51 0 -76 6 -10 16 -19 22
-19 6 0 4 8 -5 18 -19 20 -22 57 -7 67 5 3 19 1 30 -5 22 -12 27 -1 8 18 -15
15 -38 16 -38 1z"/>
<path d="M1845 3820 c3 -5 18 -10 33 -10 21 0 24 2 12 10 -20 13 -53 13 -45 0z"/>
<path d="M550 3769 c0 -5 5 -7 10 -4 6 3 10 8 10 11 0 2 -4 4 -10 4 -5 0 -10
-5 -10 -11z"/>
<path d="M1328 3768 c9 -9 15 -9 24 0 9 9 7 12 -12 12 -19 0 -21 -3 -12 -12z"/>
<path d="M1298 3713 c6 -2 18 -2 25 0 6 3 1 5 -13 5 -14 0 -19 -2 -12 -5z"/>
<path d="M4483 3684 c0 -14 2 -21 6 -17 3 4 9 10 12 13 4 3 1 10 -6 17 -10 9
-12 6 -12 -13z"/>
<path d="M4571 3660 c-41 -48 -41 -49 -20 -61 12 -6 19 -7 15 -1 -3 6 6 24 21
40 24 29 28 30 40 14 13 -15 13 -15 4 5 -14 27 -14 36 -1 28 6 -3 7 1 4 9 -9
24 -18 20 -63 -34z"/>
<path d="M1758 3693 c7 -3 16 -2 19 1 4 3 -2 6 -13 5 -11 0 -14 -3 -6 -6z"/>
<path d="M4355 3679 c10 -35 23 -45 18 -15 -3 15 -10 29 -15 32 -6 4 -7 -2 -3
-17z"/>
<path d="M4522 3677 c-12 -13 -22 -26 -22 -30 0 -14 23 -6 41 15 35 40 17 54
-19 15z"/>
<path d="M1390 3666 c0 -2 15 -9 33 -15 29 -10 30 -9 13 4 -18 14 -46 20 -46
11z"/>
<path d="M4300 3645 c-6 -8 -10 -19 -8 -24 1 -6 8 1 15 14 13 28 11 31 -7 10z"/>
<path d="M4635 3627 c-57 -41 -115 -90 -115 -98 0 -12 73 -8 101 6 36 19 124
104 115 112 -3 4 -22 -8 -40 -26 -19 -18 -39 -30 -45 -27 -7 5 -8 1 -4 -10 5
-13 3 -15 -7 -9 -8 5 -11 4 -7 -2 5 -8 -51 -43 -70 -43 -8 0 70 68 104 91 13
8 20 19 16 22 -9 10 -15 8 -48 -16z"/>
<path d="M1238 3563 c7 -3 16 -2 19 1 4 3 -2 6 -13 5 -11 0 -14 -3 -6 -6z"/>
<path d="M1385 3515 c-5 -2 -30 -9 -54 -15 -23 -6 -41 -13 -39 -16 3 -2 38 5
79 15 41 11 63 20 49 20 -14 0 -29 -2 -35 -4z"/>
<path d="M4400 3449 c0 -5 5 -7 10 -4 6 3 10 8 10 11 0 2 -4 4 -10 4 -5 0 -10
-5 -10 -11z"/>
<path d="M331 3369 c-1 -20 67 -210 80 -224 13 -13 11 9 -7 68 -19 66 -72 177
-73 156z"/>
<path d="M1360 3294 c-11 -26 -20 -52 -20 -58 1 -10 19 27 41 82 16 41 0 22
-21 -24z"/>
<path d="M910 3239 l-35 -31 32 22 c29 19 50 40 41 40 -2 0 -19 -14 -38 -31z"/>
<path d="M3627 3204 c-30 -60 -81 -133 -161 -228 -28 -34 -60 -74 -70 -91
l-19 -30 23 20 c61 52 213 245 232 295 4 8 13 32 22 53 25 58 3 43 -27 -19z"/>
<path d="M3206 3188 c30 -58 55 -88 75 -88 29 0 23 16 -27 70 -54 58 -72 64
-48 18z"/>
<path d="M521 3165 c-11 -19 -32 -40 -46 -45 -28 -11 -33 -20 -9 -20 20 0 70
52 77 80 7 29 2 25 -22 -15z"/>
<path d="M503 3063 c9 -2 25 -2 35 0 9 3 1 5 -18 5 -19 0 -27 -2 -17 -5z"/>
<path d="M4915 2950 c4 -6 11 -8 16 -5 14 9 11 15 -7 15 -8 0 -12 -5 -9 -10z"/>
<path d="M1900 2874 c0 -6 7 -19 16 -30 14 -18 14 -18 3 6 -14 31 -19 36 -19
24z"/>
<path d="M3350 2835 c-7 -9 -11 -17 -9 -20 3 -2 10 5 17 15 14 24 10 26 -8 5z"/>
<path d="M5390 2830 c-8 -5 -10 -10 -5 -10 6 0 17 5 25 10 8 5 11 10 5 10 -5
0 -17 -5 -25 -10z"/>
<path d="M5348 2813 c7 -3 16 -2 19 1 4 3 -2 6 -13 5 -11 0 -14 -3 -6 -6z"/>
<path d="M2906 2780 c-27 -11 -60 -17 -72 -14 -25 6 -86 -19 -106 -44 -11 -15
-11 -15 2 -5 31 24 102 46 109 35 5 -8 29 -3 82 18 40 16 65 29 54 29 -11 0
-42 -9 -69 -19z"/>
<path d="M503 2726 l-58 -31 -6 -95 c-5 -97 -18 -137 -55 -177 -21 -22 -21
-22 -42 -3 -18 17 -21 18 -27 2 -3 -9 -3 -13 1 -10 3 4 21 -4 39 -18 18 -14
48 -27 67 -30 41 -7 42 -5 112 144 28 60 45 110 41 121 -3 10 6 42 19 73 l24
54 -29 0 c-15 0 -54 -13 -86 -30z"/>
<path d="M3235 2709 c-26 -28 -64 -57 -84 -64 -20 -8 -29 -14 -21 -14 24 -1
155 35 176 48 17 11 17 12 1 7 -10 -3 -37 -9 -60 -12 l-42 -7 45 47 c24 25 42
46 38 46 -3 0 -27 -23 -53 -51z"/>
<path d="M3475 2741 c-33 -10 -73 -23 -88 -29 -16 -7 -33 -12 -39 -12 -6 0 -9
-2 -6 -5 6 -6 204 43 228 56 26 15 -30 8 -95 -10z"/>
<path d="M592 2670 c-7 -11 -12 -25 -12 -32 1 -7 8 0 16 15 18 33 14 46 -4 17z"/>
<path d="M365 2617 c-21 -21 -24 -27 -9 -19 22 12 49 40 43 46 -2 1 -17 -11
-34 -27z"/>
<path d="M4948 2633 c12 -2 32 -2 45 0 12 2 2 4 -23 4 -25 0 -35 -2 -22 -4z"/>
<path d="M3015 2599 c-19 -17 -35 -35 -35 -40 0 -19 28 -7 60 25 18 19 42 37
54 39 14 3 10 5 -11 6 -23 1 -42 -8 -68 -30z"/>
<path d="M5321 2504 c0 -11 3 -14 6 -6 3 7 2 16 -1 19 -3 4 -6 -2 -5 -13z"/>
<path d="M291 2475 c1 -19 18 -51 18 -35 0 8 -4 22 -9 30 -5 8 -9 11 -9 5z"/>
<path d="M4918 2363 c7 -3 16 -2 19 1 4 3 -2 6 -13 5 -11 0 -14 -3 -6 -6z"/>
<path d="M2900 2099 c-20 -17 -21 -18 -4 -10 18 9 23 7 27 -9 7 -27 58 -27 82
0 22 24 18 25 -23 4 -36 -17 -56 -11 -49 17 6 24 -2 24 -33 -2z"/>
<path d="M2558 2083 c7 -3 16 -2 19 1 4 3 -2 6 -13 5 -11 0 -14 -3 -6 -6z"/>
<path d="M2681 2050 c-19 -11 5 -23 25 -12 14 8 14 10 2 15 -8 3 -21 2 -27 -3z"/>
<path d="M2652 1975 c-12 -25 -22 -52 -22 -61 0 -8 -4 -13 -9 -10 -5 4 -7 -4
-3 -16 3 -14 2 -19 -6 -14 -7 4 -12 3 -12 -3 0 -5 4 -12 9 -15 5 -3 7 -16 4
-29 -3 -12 -3 -19 1 -16 3 3 16 39 27 79 11 40 26 85 35 101 8 16 11 29 6 29
-4 0 -18 -20 -30 -45z"/>
<path d="M3180 1969 l-25 -20 33 16 c17 8 32 18 32 20 0 10 -16 4 -40 -16z"/>
<path d="M2660 1686 c0 -2 7 -7 16 -10 8 -3 12 -2 9 4 -6 10 -25 14 -25 6z"/>
<path d="M2836 1652 c-3 -5 3 -17 14 -27 23 -21 26 -9 6 18 -8 10 -17 14 -20
9z"/>
<path d="M2270 1605 c-36 -13 -60 -24 -54 -24 17 -2 118 30 129 40 13 13 0 10
-75 -16z"/>
<path d="M2401 1414 c0 -11 3 -14 6 -6 3 7 2 16 -1 19 -3 4 -6 -2 -5 -13z"/>
<path d="M2972 1400 c7 -11 17 -20 22 -20 5 0 1 9 -9 20 -10 11 -20 20 -22 20
-2 0 2 -9 9 -20z"/>
<path d="M2040 1335 c-13 -14 -18 -25 -12 -25 23 0 9 -94 -24 -167 -8 -17 -14
-37 -14 -45 0 -7 -11 -33 -25 -57 -14 -23 -25 -44 -25 -45 0 -1 9 -2 19 -3 14
-1 18 3 14 13 -3 9 -1 25 5 37 6 12 18 39 26 59 16 40 57 70 161 120 39 19 50
27 30 23 -16 -3 -61 -21 -98 -39 -64 -31 -68 -32 -62 -12 4 12 9 47 10 79 2
32 9 64 15 72 20 25 5 17 -20 -10z"/>
<path d="M2640 1303 c0 -5 7 -25 17 -43 9 -19 20 -47 24 -64 l7 -31 1 28 c1
15 3 27 5 27 2 0 59 -26 127 -59 68 -32 132 -61 142 -64 9 -4 17 -11 17 -17 0
-5 4 -10 9 -10 9 0 -8 69 -38 150 -17 47 -20 51 -21 25 0 -22 -3 -26 -9 -15
-6 8 -25 14 -45 14 -20 0 -31 3 -25 7 11 6 -25 23 -73 35 -18 4 -28 2 -28 -5
0 -6 -10 -11 -21 -11 -16 0 -20 -5 -16 -20 7 -28 -16 -14 -48 30 -14 19 -25
29 -25 23z"/>
<path d="M3240 1141 c-19 -11 -69 -29 -110 -42 -78 -23 -82 -39 -4 -20 49 13
151 59 160 72 8 14 -7 10 -46 -10z"/>
<path d="M2767 1073 c119 -112 210 -250 198 -302 -4 -17 -3 -22 4 -12 11 16
30 -9 57 -77 9 -24 18 -41 21 -38 2 2 -10 35 -27 72 -26 57 -29 73 -20 93 13
29 8 37 -10 16 -11 -14 -18 -7 -49 49 -43 78 -106 152 -175 207 l-51 41 52
-49z"/>
<path d="M1956 1085 c-10 -15 -15 -32 -13 -38 2 -7 12 3 21 21 21 41 15 53 -8
17z"/>
<path d="M2997 1024 c-3 -4 0 -19 8 -35 8 -15 15 -38 15 -51 0 -13 10 -36 21
-53 l21 -30 -6 32 c-7 44 -51 145 -59 137z"/>
<path d="M2078 978 c-22 -34 -42 -74 -31 -63 14 15 55 85 50 85 -3 0 -11 -10
-19 -22z"/>
<path d="M3900 923 c0 -18 43 -103 52 -103 12 0 10 28 -2 35 -6 3 -19 23 -30
43 -10 20 -19 31 -20 25z"/>
<path d="M3940 925 c0 -5 9 -23 20 -40 26 -39 26 -25 0 17 -11 18 -20 29 -20
23z"/>
<path d="M1999 833 c-13 -16 -12 -17 4 -4 9 7 17 15 17 17 0 8 -8 3 -21 -13z"/>
<path d="M3061 834 c0 -11 3 -14 6 -6 3 7 2 16 -1 19 -3 4 -6 -2 -5 -13z"/>
<path d="M1969 793 c-13 -16 -12 -17 4 -4 16 13 21 21 13 21 -2 0 -10 -8 -17
-17z"/>
<path d="M3071 794 c0 -11 3 -14 6 -6 3 7 2 16 -1 19 -3 4 -6 -2 -5 -13z"/>
<path d="M3081 760 c0 -8 4 -32 8 -54 6 -23 6 -48 1 -62 -7 -17 -6 -23 3 -21
7 1 19 -25 29 -63 18 -68 19 -64 3 65 -5 43 -43 160 -44 135z"/>
<path d="M2241 724 c0 -11 3 -14 6 -6 3 7 2 16 -1 19 -3 4 -6 -2 -5 -13z"/>
<path d="M4017 698 c-6 -19 13 -68 27 -68 7 0 10 14 8 40 -4 39 -25 55 -35 28z
m20 -30 c-3 -8 -6 -5 -6 6 -1 11 2 17 5 13 3 -3 4 -12 1 -19z"/>
<path d="M4696 701 c15 -14 54 -23 54 -13 0 11 -24 22 -48 22 -10 0 -12 -3 -6
-9z"/>
<path d="M2266 620 c8 -30 29 -57 47 -57 6 0 51 -10 99 -23 48 -12 92 -20 99
-18 6 2 -38 16 -97 31 -60 15 -113 34 -119 41 -5 8 -16 23 -23 33 -11 16 -12
16 -6 -7z"/>
<path d="M3240 592 c-19 -19 -26 -30 -15 -24 22 11 65 50 65 57 0 11 -17 0
-50 -33z"/>
<path d="M4811 577 c7 -12 22 -34 35 -49 19 -24 21 -35 17 -89 -5 -50 -3 -61
8 -57 19 6 24 82 8 122 -16 40 -48 84 -66 90 -11 5 -11 1 -2 -17z"/>
<path d="M4860 577 c0 -4 16 -25 36 -46 19 -22 42 -47 50 -57 14 -18 15 -18 5
1 -12 25 -90 113 -91 102z"/>
<path d="M2760 560 c-9 -6 -10 -10 -3 -10 6 0 15 5 18 10 8 12 4 12 -15 0z"/>
<path d="M2068 553 c12 -2 32 -2 45 0 12 2 2 4 -23 4 -25 0 -35 -2 -22 -4z"/>
<path d="M2233 528 c-34 -24 -45 -45 -15 -29 17 9 59 51 51 51 -2 0 -19 -10
-36 -22z"/>
<path d="M2565 530 c11 -5 29 -8 40 -8 16 0 15 2 -5 8 -34 11 -60 11 -35 0z"/>
<path d="M4135 480 c9 -32 67 -130 77 -130 13 0 9 10 -17 44 -14 18 -25 37
-25 42 0 5 -9 23 -21 39 -19 28 -20 28 -14 5z"/>
<path d="M3146 427 c2 -38 7 -79 10 -93 7 -27 -25 -72 -112 -157 -26 -26 -43
-47 -37 -47 11 0 113 102 139 138 12 18 19 20 29 12 11 -9 12 -7 8 8 -2 11 3
33 13 48 17 29 17 29 -2 11 -19 -18 -19 -16 -35 65 l-17 83 4 -68z"/>
<path d="M4160 378 c0 -9 16 -30 36 -48 37 -32 58 -34 33 -3 -9 11 -10 14 -1
9 7 -4 12 -2 12 4 0 7 -7 9 -17 6 -11 -5 -24 2 -40 20 -16 19 -23 22 -23 12z"/>
<path d="M4888 207 c-16 -12 -48 -104 -48 -136 0 -27 18 7 36 69 9 30 22 58
28 62 6 4 8 9 5 12 -3 3 -13 0 -21 -7z"/>
<path d="M4391 190 c14 -31 19 -36 19 -24 0 6 -7 19 -16 30 -14 18 -14 18 -3
-6z"/>
<path d="M3046 123 c-48 -52 -100 -123 -88 -123 8 0 75 80 120 142 22 30 6 20
-32 -19z"/>
<path d="M4980 136 c0 -10 -16 -33 -35 -52 -20 -19 -33 -39 -30 -44 4 -6 -2
-13 -12 -16 -60 -19 -48 -23 82 -23 105 0 134 3 115 11 -14 5 -58 8 -97 5 -40
-2 -73 -3 -73 -1 0 12 85 44 116 44 29 0 34 3 25 13 -6 8 -8 17 -5 20 12 11
-70 -15 -93 -30 -13 -9 -26 -13 -30 -9 -3 3 -2 6 4 6 13 0 48 78 40 87 -4 3
-7 -2 -7 -11z"/>
<path d="M4590 109 c0 -5 -6 -9 -12 -9 -7 0 -47 -23 -88 -50 -62 -41 -71 -50
-49 -50 16 0 43 15 71 40 25 21 49 36 53 32 5 -4 5 -1 1 6 -5 8 1 12 17 12 21
0 26 -7 36 -45 11 -44 25 -57 34 -32 4 9 7 9 18 0 7 -7 24 -13 39 -12 23 0 23
1 5 9 -11 5 -36 23 -55 39 -39 34 -34 36 52 22 26 -4 45 -4 43 0 -3 4 -24 10
-48 14 -23 4 -46 11 -52 15 -16 12 -65 18 -65 9z"/>
<path d="M2626 38 c-28 -36 -26 -50 3 -24 16 15 35 56 26 56 -2 0 -15 -14 -29
-32z"/>
</g>
</svg>
